<?xml version="1.0" standalone="no"?><!DOCTYPE svg PUBLIC "-//W3C//DTD SVG 1.1//EN" "http://www.w3.org/Graphics/SVG/1.1/DTD/svg11.dtd"><svg t="1592736590984" class="icon" viewBox="0 0 1024 1024" version="1.1" xmlns="http://www.w3.org/2000/svg" p-id="1194" xmlns:xlink="http://www.w3.org/1999/xlink" width="200" height="200"><defs><style type="text/css"></style></defs><path d="M673.184 812.544c130.048-21.248 202.88-31.136 350.688-102.176L1024 589.248c-137.728 137.6-394.624 219.552-642.976 217.504-32-0.416-83.104 0.736-95.84-1.024 132.256 20.896 263.68 23.712 388 6.784zM163.68 672.608c32 0.128 77.024-0.608 102.528-16.8 22.816-19.936 39.68-47.2 53.216-77.984l65.92-200.416-92.032 0.544-51.168 156.32c-9.6 49.536-40.224 66.816-63.264 63.264l-57.76-4.128-21.984 71.52 64.544 7.68z m567.04-4.448l71.328-216.48h104.096l23.168-71.04-252.032-0.416-23.712 70.912h54.688l-73.824 216.608 96.288 0.416z m-164.608-1.024l24.064-73.312h-136.704l12.672-38.784h113.824l23.168-70.016H489.6l11.168-34.56h131.424l24.32-73.088-224.736 1.152-94.08 288.288 228.384 0.288z m53.12-418.528c80.352-3.072 159.712 3.552 254.688 11.808-93.536-34.528-243.2-60.032-356-60.032-185.344 0-368.8 44.96-516.992 114.144L0.032 472.32c141.696-144.512 388.864-226.048 619.232-223.712z" fill="#d81e06" p-id="1195"></path></svg>